<?xml version="1.0" encoding="utf-8"?>
<!-- Generator: Adobe Illustrator 15.0.0, SVG Export Plug-In . SVG Version: 6.00 Build 0)  -->
<!DOCTYPE svg PUBLIC "-//W3C//DTD SVG 1.1//EN" "http://www.w3.org/Graphics/SVG/1.1/DTD/svg11.dtd">
<svg version="1.1" id="Layer_1" xmlns="http://www.w3.org/2000/svg" xmlns:xlink="http://www.w3.org/1999/xlink" x="0px" y="0px"
	 width="115px" height="50px" viewBox="0 0 115 50" enable-background="new 0 0 115 50" xml:space="preserve">
<g>
	<polygon points="14.255,44.814 12.099,47.729 13.783,50.008 14.726,50.008 16.411,47.729 	"/>
	<polygon fill="#F69321" points="27.497,32.415 27.509,32.415 27.509,9.233 27.509,7.796 24.086,7.796 24.042,7.857 14.191,21.188 
		4.467,8.028 4.296,7.796 1,7.796 1,9.404 1,32.415 1.012,32.415 12.099,47.729 14.255,44.814 4.467,31.582 4.467,14.097 
		13.506,26.33 14.191,26.953 14.876,26.33 24.042,13.926 24.042,31.582 14.255,44.814 16.411,47.729 	"/>
	<g>
		<g>
			<path fill="#FFFFFF" d="M38.299,43.158h0.765v5.152h-0.765V43.158z"/>
			<path fill="#FFFFFF" d="M42.852,44.211h-0.015v4.1h-0.765v-5.152h0.888l3.313,4.1h0.015v-4.1h0.765v5.152h-0.888L42.852,44.211z"
				/>
			<path fill="#FFFFFF" d="M53.906,43.158h0.823l-2.259,5.152h-0.815l-2.295-5.152h0.866l1.855,4.359L53.906,43.158z"/>
			<path fill="#FFFFFF" d="M57.006,43.158h4.143v0.664h-3.377v1.494h3.277v0.664h-3.277v1.666h3.45v0.664h-4.215V43.158z"/>
			<path fill="#FFFFFF" d="M64.213,46.615c0.022,0.924,0.874,1.162,1.66,1.162c0.809,0,1.394-0.318,1.394-0.873
				c0-0.47-0.36-0.657-0.96-0.766l-1.17-0.195c-0.613-0.094-1.529-0.346-1.529-1.35c0-0.945,0.743-1.566,2.064-1.566
				c1.039,0,2.114,0.376,2.193,1.617h-0.765c-0.058-0.396-0.296-0.953-1.53-0.953c-0.556,0-1.198,0.238-1.198,0.845
				c0,0.317,0.21,0.57,0.845,0.679l1.264,0.217c0.403,0.079,1.551,0.26,1.551,1.32c0,1.307-1.176,1.689-2.215,1.689
				c-1.162,0-2.368-0.412-2.368-1.826H64.213z"/>
			<path fill="#FFFFFF" d="M71.904,43.822h-1.949v-0.664h4.662v0.664H72.67v4.488h-0.766V43.822z"/>
			<path fill="#FFFFFF" d="M82.164,43.158h1.062v5.152h-0.765v-4.272h-0.015l-2.007,4.272h-0.678l-2-4.186h-0.014v4.186h-0.766
				v-5.152h1.076l2.042,4.272L82.164,43.158z"/>
			<path fill="#FFFFFF" d="M86.138,43.158h4.144v0.664h-3.379v1.494h3.277v0.664h-3.277v1.666h3.45v0.664h-4.215V43.158z"/>
			<path fill="#FFFFFF" d="M93.828,44.211h-0.014v4.1h-0.766v-5.152h0.888l3.313,4.1h0.014v-4.1h0.766v5.152h-0.889L93.828,44.211z"
				/>
			<path fill="#FFFFFF" d="M102.371,43.822h-1.949v-0.664h4.662v0.664h-1.948v4.488h-0.765V43.822z"/>
			<path fill="#FFFFFF" d="M107.773,46.615c0.021,0.924,0.873,1.162,1.66,1.162c0.809,0,1.393-0.318,1.393-0.873
				c0-0.47-0.36-0.657-0.959-0.766l-1.17-0.195c-0.613-0.094-1.529-0.346-1.529-1.35c0-0.945,0.742-1.566,2.063-1.566
				c1.04,0,2.114,0.376,2.194,1.617h-0.766c-0.057-0.396-0.295-0.953-1.529-0.953c-0.557,0-1.198,0.238-1.198,0.845
				c0,0.317,0.209,0.57,0.845,0.679l1.263,0.217c0.403,0.079,1.552,0.26,1.552,1.32c0,1.307-1.177,1.689-2.216,1.689
				c-1.162,0-2.367-0.412-2.367-1.826H107.773z"/>
		</g>
	</g>
	<polygon points="58.003,-1.849 58.003,-1.753 58.074,-1.849 	"/>
	<path fill="none" d="M78.045,15.776c-1.084-1.084-2.35-1.946-3.795-2.587c-1.445-0.64-2.973-0.96-4.58-0.96
		c-1.644,0-3.188,0.32-4.633,0.96c-1.444,0.641-2.709,1.502-3.793,2.587c-1.084,1.083-1.938,2.349-2.561,3.793
		c-0.625,1.446-0.937,2.973-0.937,4.582c0,1.643,0.312,3.187,0.937,4.631c0.623,1.446,1.477,2.71,2.561,3.794
		s2.349,1.938,3.793,2.562c1.445,0.624,2.989,0.937,4.633,0.937c1.607,0,3.135-0.313,4.58-0.937s2.711-1.478,3.795-2.562
		c1.083-1.084,1.945-2.348,2.586-3.794c0.641-1.444,0.961-2.989,0.961-4.631c0-1.609-0.32-3.136-0.961-4.582
		C79.99,18.125,79.128,16.859,78.045,15.776z"/>
	<polygon fill="#FFFFFF" points="30.552,47.061 35.676,47.061 35.676,30.26 48.633,30.26 48.633,25.136 35.676,25.136 35.676,12.82 
		51.047,12.82 51.047,7.696 30.552,7.696 	"/>
	<path fill="#FFFFFF" d="M86.715,24.151c0-2.298-0.451-4.483-1.354-6.552c-0.904-2.069-2.127-3.883-3.67-5.444
		c-1.545-1.559-3.352-2.791-5.42-3.694C74.202,7.557,72,7.105,69.67,7.105c-2.333,0-4.525,0.452-6.578,1.355
		c-2.053,0.903-3.859,2.135-5.419,3.694c-1.56,1.561-2.792,3.375-3.694,5.444c-0.903,2.069-1.355,4.254-1.355,6.552
		c0,2.333,0.452,4.533,1.355,6.601c0.903,2.07,2.134,3.877,3.694,5.42c1.56,1.545,3.367,2.768,5.419,3.67
		c2.053,0.903,4.245,1.355,6.578,1.355c2.297,0,4.482-0.452,6.553-1.355c2.067-0.902,3.883-2.134,5.442-3.694
		c1.561-1.56,2.792-3.366,3.696-5.419C86.264,28.676,86.715,26.483,86.715,24.151z M80.631,28.782
		c-0.641,1.446-1.503,2.71-2.586,3.794c-1.084,1.084-2.35,1.938-3.795,2.562s-2.973,0.937-4.58,0.937
		c-1.644,0-3.188-0.313-4.633-0.937c-1.444-0.624-2.709-1.478-3.793-2.562s-1.938-2.348-2.561-3.794
		c-0.625-1.444-0.937-2.989-0.937-4.631c0-1.609,0.312-3.136,0.937-4.582c0.623-1.445,1.477-2.71,2.561-3.793
		c1.084-1.084,2.349-1.946,3.793-2.587c1.445-0.64,2.989-0.96,4.633-0.96c1.607,0,3.135,0.32,4.58,0.96
		c1.445,0.641,2.711,1.502,3.795,2.587c1.083,1.083,1.945,2.349,2.586,3.793c0.641,1.446,0.961,2.973,0.961,4.582
		C81.592,25.793,81.271,27.338,80.631,28.782z"/>
	<polygon fill="#FFFFFF" points="104.85,7.632 97.555,19.619 90.263,7.696 83.76,7.696 94.696,24.151 83.76,40.605 90.164,40.605 
		97.555,28.486 104.945,40.605 111.398,40.605 100.412,24.151 110.807,7.632 	"/>
	<polygon fill="#F69321" points="113.96,2.622 107.9,2.622 104.85,7.632 110.807,7.632 	"/>
</g>
</svg>
